<?xml version="1.0" standalone="no"?>
<!DOCTYPE svg PUBLIC "-//W3C//DTD SVG 20010904//EN"
 "http://www.w3.org/TR/2001/REC-SVG-20010904/DTD/svg10.dtd">
<svg version="1.0" xmlns="http://www.w3.org/2000/svg"
 width="500.000000pt" height="500.000000pt" viewBox="0 0 500.000000 500.000000"
 preserveAspectRatio="xMidYMid meet">

<g transform="translate(0.000000,500.000000) scale(0.100000,-0.100000)"
fill="#000000" stroke="none">
<path d="M0 2500 l0 -2500 2500 0 2500 0 0 2500 0 2500 -2500 0 -2500 0 0
-2500z m2550 1796 c8 -1 22 -6 31 -10 9 -4 20 -6 25 -5 5 1 23 -4 39 -11 17
-7 32 -14 35 -14 11 -3 106 -61 118 -73 8 -7 23 -18 34 -24 11 -6 18 -13 15
-15 -2 -3 22 -31 54 -64 33 -32 58 -63 57 -68 -2 -6 6 -18 18 -28 24 -22 74
-110 74 -131 0 -8 5 -11 10 -8 6 3 10 -3 10 -14 0 -12 4 -21 10 -21 5 0 7 -7
4 -15 -4 -8 -2 -15 4 -15 6 0 13 -13 17 -30 4 -16 10 -30 15 -30 4 0 11 -15
14 -34 4 -19 12 -36 18 -38 16 -6 -12 -66 -33 -71 -22 -6 -66 34 -61 56 2 9
-1 17 -7 17 -6 0 -11 8 -11 18 0 9 -7 30 -15 46 -8 15 -13 31 -10 35 2 4 -5
13 -15 21 -10 8 -17 17 -14 21 2 4 -2 14 -9 21 -8 8 -20 30 -27 50 -8 21 -24
48 -37 62 -13 14 -23 30 -23 35 0 6 -9 16 -20 23 -11 7 -20 20 -20 29 0 16
-26 34 -44 30 -5 -1 -6 5 -3 13 4 10 -6 22 -27 35 -18 11 -52 36 -76 55 -24
19 -48 32 -53 29 -4 -3 -16 2 -26 11 -10 9 -28 18 -40 21 -11 2 -26 7 -31 10
-6 3 -10 2 -10 -4 0 -7 -8 -7 -25 -1 -16 6 -25 6 -25 0 0 -6 -9 -6 -25 0 -17
6 -25 6 -25 -1 0 -6 -9 -8 -20 -4 -12 4 -20 2 -20 -5 0 -7 -8 -10 -20 -7 -11
3 -20 1 -20 -3 0 -5 -16 -12 -35 -16 -19 -3 -32 -10 -29 -15 3 -5 -2 -9 -10
-9 -9 0 -16 -4 -16 -10 0 -5 -7 -10 -16 -10 -8 0 -12 -4 -9 -10 3 -5 -3 -10
-15 -10 -12 0 -18 -4 -15 -10 3 -5 0 -10 -8 -10 -8 0 -17 -9 -20 -21 -3 -12
-10 -18 -16 -14 -6 3 -11 3 -11 -2 0 -4 -10 -20 -23 -34 -12 -15 -42 -56 -66
-92 -25 -36 -49 -63 -53 -61 -4 3 -8 1 -8 -5 0 -12 -29 -3 -47 15 -14 13 20
86 67 146 17 20 30 40 30 43 0 3 25 31 55 60 30 30 55 51 55 47 0 -4 11 6 25
22 14 16 25 26 25 22 0 -4 12 2 26 13 15 12 33 21 40 21 8 0 14 5 14 10 0 6 6
10 13 9 13 -2 41 7 70 22 10 6 32 7 49 4 21 -5 28 -4 24 4 -7 11 10 10 94 -3z
m172 -303 l208 -158 136 -300 c75 -166 145 -308 157 -318 27 -22 44 -36 81
-65 16 -12 25 -22 20 -22 -5 0 3 -8 16 -17 14 -10 28 -17 33 -15 4 1 7 -5 7
-13 0 -8 4 -15 9 -15 5 0 43 -33 85 -74 87 -85 101 -123 53 -140 -26 -9 -31
-7 -71 37 -23 26 -45 47 -49 47 -11 0 -52 44 -50 52 2 5 0 8 -5 8 -4 0 -23 14
-42 30 -40 34 -56 38 -45 13 4 -10 27 -75 50 -145 l43 -127 -54 -180 c-30 -99
-54 -185 -54 -190 0 -6 8 -3 18 6 11 10 17 21 15 26 -2 4 3 7 11 7 9 0 16 5
16 10 0 6 7 10 15 10 8 0 15 7 15 15 0 8 7 15 15 15 8 0 14 6 13 13 -2 6 5 11
15 11 9 -1 17 4 17 12 0 8 4 14 8 14 5 0 15 11 22 25 7 14 19 25 27 25 7 0 13
3 13 8 0 4 20 29 45 56 24 27 42 53 39 58 -3 4 4 8 15 8 12 0 20 3 19 8 -4 9
41 82 51 82 3 0 12 12 18 28 13 28 38 72 67 117 10 15 15 29 12 32 -3 3 8 25
25 49 16 24 26 44 21 44 -9 0 9 65 29 102 5 10 6 18 1 18 -10 0 -9 30 1 47 8
13 -46 47 -56 36 -4 -3 -14 -2 -24 2 -10 5 -20 9 -23 10 -29 10 -40 20 -40 38
0 11 -3 17 -6 14 -4 -3 -14 4 -24 16 -31 40 -45 156 -23 197 7 14 13 28 13 32
0 4 11 19 25 34 14 15 25 23 25 19 0 -4 8 1 18 11 9 11 25 18 35 16 9 -2 17 2
17 8 0 7 8 10 20 7 11 -3 20 -1 20 5 0 5 4 6 10 3 5 -3 29 -7 53 -9 52 -3 123
-46 117 -72 -1 -3 7 -13 18 -22 22 -19 44 -86 35 -108 -3 -8 -1 -14 5 -14 12
0 -6 -56 -32 -95 -24 -36 -56 -71 -56 -61 0 20 -35 -31 -37 -53 -1 -14 -5 -42
-9 -61 -4 -19 -7 -46 -8 -60 -1 -14 -7 -35 -13 -46 -7 -12 -9 -24 -6 -28 9 -9
-61 -151 -108 -218 -11 -14 -19 -29 -19 -33 0 -3 -14 -26 -30 -51 -17 -24 -29
-44 -26 -44 3 0 -6 -12 -19 -26 -14 -15 -25 -31 -25 -35 0 -5 -6 -9 -13 -9 -7
0 -23 -18 -37 -39 -13 -22 -32 -42 -42 -44 -10 -3 -21 -13 -25 -24 -7 -18
-143 -160 -143 -148 0 3 -15 -10 -34 -30 -19 -19 -37 -35 -40 -35 -7 0 -34
-23 -79 -66 -26 -25 -39 -55 -65 -145 -29 -98 -44 -128 -104 -217 -39 -57 -68
-105 -66 -107 2 -3 20 -5 39 -6 18 -2 42 -6 51 -11 10 -5 18 -4 20 4 3 8 10 8
26 -1 16 -9 22 -9 22 0 0 7 7 8 18 4 26 -10 112 -16 112 -7 0 5 32 6 70 4 39
-1 70 1 70 5 0 4 14 9 31 10 17 1 37 7 44 13 6 5 15 7 18 4 6 -6 100 36 105
48 2 4 9 5 17 2 7 -3 18 4 25 15 6 12 17 21 24 21 12 0 86 100 86 116 0 3 8
18 19 32 20 30 19 25 24 145 2 48 0 87 -4 87 -4 0 -5 9 -2 20 3 12 0 20 -7 20
-7 0 -9 8 -5 20 4 11 2 20 -4 20 -6 0 -8 7 -4 16 3 9 0 19 -6 24 -7 4 -14 13
-15 21 -8 41 -19 69 -27 69 -5 0 -9 7 -9 16 0 9 -9 24 -19 34 -20 16 -20 17
-1 48 24 39 31 39 66 7 15 -14 24 -25 21 -25 -4 0 5 -16 18 -36 14 -20 25 -44
25 -54 0 -9 3 -20 8 -24 4 -4 7 -11 7 -14 1 -4 6 -16 11 -27 6 -11 10 -31 9
-45 -1 -13 4 -30 11 -37 7 -7 11 -24 10 -38 -2 -14 0 -25 4 -25 12 0 5 -154
-8 -177 -8 -14 -9 -23 -3 -23 9 0 4 -13 -33 -85 -5 -11 -16 -33 -25 -50 -8
-16 -29 -43 -46 -60 -37 -36 -88 -79 -95 -81 -22 -6 -70 -30 -70 -35 0 -7 -54
-24 -56 -17 0 2 -8 -3 -18 -11 -9 -8 -19 -11 -23 -8 -3 4 -12 2 -20 -5 -7 -6
-16 -8 -20 -5 -3 4 -12 2 -19 -4 -7 -6 -45 -11 -83 -12 -39 -1 -71 -6 -71 -10
0 -4 -9 -3 -19 3 -24 12 -34 13 -27 1 5 -7 -60 -6 -149 3 -11 1 -22 -1 -25 -5
-3 -4 -16 -2 -30 4 -14 6 -36 11 -50 13 -14 1 -25 3 -25 4 0 1 -12 3 -27 5
-16 2 -28 -1 -28 -6 0 -5 -139 -9 -346 -9 l-346 0 6 38 c3 20 8 85 12 143 l6
105 -212 255 c-194 234 -390 500 -390 531 0 7 9 37 20 66 12 30 16 52 9 52 -5
0 -8 3 -6 8 3 4 8 31 11 60 3 29 8 57 11 62 4 6 1 10 -5 10 -6 0 -5 11 5 30 9
17 12 30 7 30 -12 0 -7 41 7 68 7 13 7 22 1 24 -6 2 -4 14 5 31 7 15 9 27 4
27 -6 0 -6 7 0 19 6 10 11 36 12 57 1 21 7 44 12 51 5 7 6 17 3 22 -4 5 -2 12
4 16 6 4 8 10 5 15 -3 5 0 19 6 32 32 62 36 73 19 63 -13 -8 -13 8 1 22 9 9
15 28 18 55 2 16 42 18 63 4 27 -19 31 -42 11 -72 -9 -15 -11 -24 -4 -24 6 0
4 -13 -7 -32 -10 -18 -17 -40 -17 -48 1 -8 -2 -26 -7 -38 -5 -13 -15 -58 -24
-100 -9 -42 -29 -112 -45 -156 -16 -44 -27 -81 -25 -83 3 -3 243 584 253 622
3 11 3 17 -1 13 -5 -3 -28 -1 -52 7 -26 7 -44 9 -44 3 0 -5 -4 -7 -9 -4 -5 3
-32 8 -60 10 -27 2 -55 7 -61 11 -5 3 -10 2 -10 -4 0 -7 -8 -7 -25 -1 -14 5
-25 6 -25 2 0 -4 -24 -7 -52 -6 -29 1 -57 -1 -63 -5 -5 -3 -21 -7 -35 -8 -45
-6 -125 -25 -145 -36 -11 -6 -24 -10 -29 -9 -26 8 -39 -56 -18 -93 11 -18 12
-67 2 -86 -8 -13 -7 -19 0 -19 6 0 3 -12 -8 -27 -11 -16 -21 -32 -22 -38 -6
-25 -13 -34 -21 -29 -5 3 -12 -2 -15 -10 -5 -13 -52 -35 -89 -42 -55 -10 -77
-10 -101 2 -15 8 -32 14 -38 13 -22 -3 -36 1 -33 9 1 4 -14 23 -34 43 -20 19
-40 50 -44 69 -11 47 -12 111 -2 117 4 2 5 9 2 14 -8 13 53 99 70 99 3 0 15 9
27 20 12 11 34 20 49 20 15 0 30 4 34 9 3 6 17 6 35 1 17 -5 30 -7 30 -4 0 3
10 -1 23 -8 32 -18 64 -19 77 -2 7 7 16 11 21 8 5 -3 9 -1 9 5 0 6 16 13 35
17 19 3 35 10 35 15 0 5 7 6 15 3 8 -4 22 0 31 7 8 7 27 13 42 14 15 1 47 6
72 10 25 5 71 8 103 8 31 0 57 4 57 9 0 5 4 6 10 3 5 -3 42 -9 82 -12 122 -9
133 -10 133 -13 0 -1 19 -4 43 -5 42 -4 44 -2 60 35 14 31 56 68 222 194 113
86 209 156 214 156 6 0 104 -71 218 -157z m-1288 -1124 c-2 -4 0 -9 4 -11 5
-1 12 -15 16 -30 5 -21 3 -28 -9 -28 -8 0 -15 -3 -15 -7 0 -5 -14 -24 -30 -43
-16 -19 -30 -39 -30 -45 -1 -5 -14 -26 -30 -45 -17 -19 -30 -38 -30 -43 0 -5
-13 -27 -28 -50 -15 -23 -36 -60 -46 -82 -11 -22 -25 -51 -32 -65 -11 -23 -25
-86 -29 -136 -1 -11 -5 -26 -9 -32 -4 -7 -5 -20 -2 -28 3 -8 1 -25 -4 -39 -5
-13 -6 -27 -1 -29 4 -3 7 -15 6 -28 -1 -13 2 -28 7 -35 5 -7 7 -17 3 -24 -4
-6 -2 -15 4 -19 7 -4 13 -13 14 -21 5 -28 40 -75 77 -103 22 -16 37 -32 35
-36 -6 -10 83 -55 92 -47 3 4 21 -3 40 -14 18 -11 33 -18 33 -15 0 4 14 -1 31
-9 17 -9 68 -19 117 -22 78 -5 128 -9 156 -12 5 -1 6 -4 3 -7 -3 -4 -2 -14 3
-24 6 -12 5 -23 -5 -36 -8 -11 -15 -16 -15 -12 0 4 -11 3 -25 -2 -16 -6 -34
-6 -50 0 -16 6 -25 6 -25 0 0 -5 -6 -7 -12 -5 -7 3 -29 6 -48 8 -19 3 -47 9
-62 15 -15 6 -34 9 -42 6 -8 -3 -17 0 -21 5 -3 6 -10 9 -15 6 -5 -3 -21 2 -35
11 -17 11 -25 12 -25 4 0 -7 -12 -3 -30 10 -16 12 -38 23 -48 25 -11 2 -32 15
-47 29 -15 14 -31 23 -36 20 -5 -3 -9 3 -9 13 0 10 -14 27 -30 38 -16 11 -30
25 -30 32 0 6 -11 20 -25 31 -14 11 -25 27 -25 35 0 9 -4 18 -10 22 -5 3 -7
12 -3 20 3 8 0 15 -7 15 -7 0 -10 8 -7 20 3 11 1 23 -4 26 -5 3 -7 9 -4 14 3
5 1 11 -3 14 -5 3 -8 30 -8 61 1 30 -2 56 -6 58 -4 1 -1 15 7 31 18 33 19 39
5 31 -5 -3 -10 -2 -10 4 0 5 5 13 11 16 6 4 8 13 5 20 -2 7 0 17 5 22 5 5 10
22 12 39 2 16 12 42 22 57 9 15 15 27 11 27 -8 0 80 161 115 212 11 14 19 30
19 35 0 5 13 24 28 43 16 19 31 43 35 53 4 9 15 20 24 24 10 4 26 14 36 23 17
17 50 24 41 9z m501 -1058 c3 -15 21 -56 40 -92 19 -36 32 -69 28 -73 -3 -3
-1 -6 5 -6 7 0 12 -6 12 -13 0 -7 9 -23 20 -35 11 -12 20 -25 20 -30 0 -4 9
-18 21 -30 11 -12 17 -27 14 -32 -3 -6 -1 -10 5 -10 17 0 42 -28 35 -40 -3 -5
0 -10 7 -10 7 0 35 -21 62 -45 27 -25 53 -45 58 -45 5 0 7 -4 4 -9 -3 -5 5
-16 19 -25 14 -9 25 -12 25 -8 0 5 15 26 34 46 31 33 46 41 69 37 4 0 7 3 7 8
0 10 40 22 85 26 34 3 116 -33 159 -70 16 -14 26 -25 22 -25 -5 0 1 -15 12
-33 12 -21 18 -48 17 -70 -2 -21 1 -37 6 -37 5 0 0 -15 -10 -34 -11 -19 -18
-36 -15 -38 2 -3 -12 -22 -31 -44 -19 -21 -35 -35 -35 -30 0 5 -8 0 -17 -11
-10 -11 -28 -19 -40 -18 -13 1 -23 -2 -23 -6 0 -5 -7 -6 -15 -3 -8 4 -15 1
-15 -6 0 -6 -4 -9 -8 -6 -5 3 -20 7 -35 10 -15 2 -40 14 -56 25 -15 11 -30 18
-33 16 -2 -2 -18 9 -36 25 -22 20 -30 34 -25 46 4 11 2 15 -4 11 -11 -7 -27
49 -17 64 3 5 0 9 -5 9 -6 0 -11 7 -11 15 0 8 -5 15 -11 15 -6 0 -23 9 -37 19
-15 10 -30 19 -35 20 -16 1 -32 17 -32 31 0 8 -5 15 -11 15 -14 0 -143 132
-136 139 3 4 0 6 -6 6 -7 0 -12 8 -12 18 0 10 -9 24 -20 32 -11 8 -25 29 -31
47 -6 20 -15 30 -22 26 -6 -4 -8 0 -4 10 3 8 -1 21 -8 27 -8 7 -12 16 -9 21 3
5 -2 16 -10 25 -9 8 -16 22 -16 30 0 8 -4 14 -10 14 -5 0 -10 9 -10 19 0 11
-5 23 -11 26 -6 4 -8 13 -5 21 3 8 1 14 -5 14 -6 0 -9 8 -7 18 2 9 -4 25 -13
36 -10 10 -15 24 -12 32 3 8 1 14 -3 14 -5 0 -9 13 -10 29 l-1 30 63 -57 c35
-31 66 -67 69 -81z m48 -982 c21 -10 27 -19 27 -44 l0 -33 -37 14 c-40 14
-120 18 -148 8 -9 -4 -21 -18 -26 -32 -15 -39 11 -66 90 -97 89 -34 118 -56
132 -105 10 -32 9 -44 -7 -76 -26 -52 -71 -77 -140 -76 -29 0 -70 6 -89 12
-30 10 -35 16 -35 42 0 25 3 29 18 23 110 -42 192 -23 192 44 0 36 -9 43 -92
74 -83 32 -112 50 -126 83 -46 98 35 190 158 180 30 -2 67 -10 83 -17z m227
-14 c0 -32 -2 -35 -30 -35 -28 0 -30 3 -30 35 0 32 2 35 30 35 28 0 30 -3 30
-35z m272 -167 l3 -203 33 -3 c28 -3 32 -7 32 -33 l0 -29 -100 0 -100 0 0 29
c0 26 4 30 33 33 l32 3 3 168 2 167 -35 0 c-33 0 -35 2 -35 35 l0 35 65 0 65
0 2 -202z m-270 -70 l3 -133 33 -3 c28 -3 32 -7 32 -33 l0 -29 -100 0 -100 0
0 30 c0 28 3 30 35 30 l35 0 0 105 0 105 -35 0 c-32 0 -35 2 -35 30 l0 30 65
0 64 0 3 -132z m634 101 c32 -29 54 -78 54 -119 l0 -30 -115 0 c-63 0 -115 -2
-115 -5 0 -17 26 -55 45 -65 23 -12 106 -10 138 4 14 7 17 3 17 -23 0 -27 -5
-34 -35 -47 -117 -48 -245 44 -231 168 11 103 64 151 158 145 44 -2 64 -9 84
-28z m218 -21 l39 -51 38 44 c21 24 39 47 39 52 0 8 80 10 80 2 0 -3 -25 -39
-56 -80 l-57 -75 27 -38 c14 -20 42 -58 62 -84 l36 -48 -41 0 c-37 0 -44 4
-82 55 -23 30 -43 55 -44 55 -1 0 -21 -25 -44 -55 -38 -51 -45 -55 -82 -55
l-40 0 61 79 c33 44 60 83 60 87 0 4 -25 40 -55 80 -30 40 -55 76 -55 79 0 3
17 5 38 5 34 0 42 -5 76 -52z"/>
<path d="M1101 3602 c-27 -28 -58 -102 -54 -126 3 -13 13 -33 23 -44 11 -11
16 -22 14 -25 -10 -10 40 -31 76 -33 19 -1 41 3 49 10 8 6 16 10 18 9 12 -10
55 39 50 58 -1 3 4 13 11 21 13 16 6 78 -9 78 -5 0 -8 4 -6 9 1 5 -11 20 -27
34 -23 20 -39 25 -80 25 -32 -1 -57 -6 -65 -16z"/>
<path d="M3783 3597 c-18 -6 -33 -14 -33 -19 0 -5 -4 -7 -9 -4 -5 3 -20 -12
-35 -34 -14 -22 -23 -40 -19 -40 5 0 9 -17 10 -37 1 -21 7 -39 13 -41 5 -2 8
-7 6 -10 -2 -4 13 -20 35 -35 21 -16 39 -24 39 -20 0 5 15 10 33 11 17 1 39 3
47 4 18 4 61 45 58 56 -1 4 3 17 10 30 8 14 9 22 2 22 -6 0 -8 10 -4 26 5 19
4 25 -5 20 -6 -4 -11 -1 -11 8 0 9 -5 16 -11 16 -5 0 -8 4 -5 9 9 13 -26 39
-59 43 -16 3 -45 0 -62 -5z"/>
<path d="M2500 1340 c0 -6 -13 -10 -30 -10 -21 0 -30 -5 -30 -16 0 -9 -6 -14
-12 -12 -7 3 -19 -7 -27 -21 -15 -29 -21 -91 -9 -91 5 0 5 -12 2 -26 -5 -19
-4 -25 5 -20 7 5 11 0 11 -13 0 -12 3 -20 8 -19 4 1 16 -3 28 -9 23 -13 103
-11 113 3 3 5 12 9 19 9 6 0 12 4 11 8 0 5 6 14 13 20 20 17 40 67 27 67 -6 0
-8 4 -5 9 11 18 -27 90 -53 100 -14 6 -36 15 -48 21 -15 6 -23 6 -23 0z"/>
<path d="M2695 625 c-40 -39 -32 -45 55 -45 89 0 102 12 54 49 -36 28 -79 27
-109 -4z"/>
</g>
</svg>
